<?xml version="1.0" encoding="UTF-8"?>
<svg xmlns="http://www.w3.org/2000/svg" xmlns:xlink="http://www.w3.org/1999/xlink" width="30pt" height="30.000001pt" viewBox="0 0 30 30.000001" version="1.2">
<defs>
<clipPath id="clip1">
  <path d="M 12 20 L 18 20 L 18 27.613281 L 12 27.613281 Z M 12 20 "/>
</clipPath>
<clipPath id="clip2">
  <path d="M 0.949219 19 L 2 19 L 2 21 L 0.949219 21 Z M 0.949219 19 "/>
</clipPath>
<clipPath id="clip3">
  <path d="M 14 1.484375 L 16 1.484375 L 16 3 L 14 3 Z M 14 1.484375 "/>
</clipPath>
<clipPath id="clip4">
  <path d="M 28 19 L 29.253906 19 L 29.253906 21 L 28 21 Z M 28 19 "/>
</clipPath>
</defs>
<g id="surface1">
<path style=" stroke:none;fill-rule:nonzero;fill:rgb(65.489197%,59.999084%,46.269226%);fill-opacity:1;" d="M 6.1875 23.757812 C 5.992188 23.628906 5.796875 23.484375 5.617188 23.332031 L 4.984375 22.789062 C 4.773438 22.613281 4.453125 22.636719 4.273438 22.84375 C 4.089844 23.058594 4.113281 23.375 4.328125 23.558594 L 4.960938 24.09375 C 5.171875 24.277344 5.402344 24.445312 5.632812 24.601562 C 5.71875 24.65625 5.816406 24.683594 5.910156 24.683594 C 6.078125 24.683594 6.238281 24.601562 6.332031 24.453125 C 6.488281 24.222656 6.421875 23.914062 6.1875 23.757812 "/>
<path style=" stroke:none;fill-rule:nonzero;fill:rgb(65.489197%,59.999084%,46.269226%);fill-opacity:1;" d="M 10.46875 24.605469 C 10.15625 24.65625 9.839844 24.683594 9.523438 24.683594 L 9.289062 24.683594 C 8.738281 24.683594 8.195312 24.601562 7.667969 24.445312 C 7.398438 24.367188 7.117188 24.515625 7.035156 24.78125 C 6.957031 25.046875 7.109375 25.328125 7.375 25.410156 C 7.996094 25.59375 8.640625 25.6875 9.289062 25.6875 L 9.523438 25.6875 C 9.894531 25.6875 10.269531 25.65625 10.636719 25.597656 C 10.914062 25.550781 11.097656 25.289062 11.050781 25.015625 C 11.003906 24.742188 10.746094 24.5625 10.46875 24.605469 "/>
<path style=" stroke:none;fill-rule:nonzero;fill:rgb(65.489197%,59.999084%,46.269226%);fill-opacity:1;" d="M 25.21875 22.789062 L 24.585938 23.332031 C 24.40625 23.484375 24.210938 23.628906 24.015625 23.757812 C 23.78125 23.914062 23.71875 24.222656 23.871094 24.453125 C 23.96875 24.601562 24.128906 24.683594 24.292969 24.683594 C 24.386719 24.683594 24.484375 24.65625 24.570312 24.601562 C 24.804688 24.445312 25.03125 24.277344 25.246094 24.09375 L 25.878906 23.558594 C 26.089844 23.375 26.113281 23.058594 25.933594 22.84375 C 25.75 22.632812 25.429688 22.613281 25.21875 22.789062 "/>
<path style=" stroke:none;fill-rule:nonzero;fill:rgb(65.489197%,59.999084%,46.269226%);fill-opacity:1;" d="M 22.539062 24.445312 C 22.011719 24.601562 21.464844 24.683594 20.914062 24.683594 L 20.683594 24.683594 C 20.367188 24.683594 20.046875 24.65625 19.738281 24.605469 C 19.460938 24.5625 19.199219 24.742188 19.152344 25.015625 C 19.105469 25.289062 19.292969 25.550781 19.566406 25.597656 C 19.9375 25.65625 20.3125 25.6875 20.683594 25.6875 L 20.914062 25.6875 C 21.566406 25.6875 22.207031 25.59375 22.832031 25.410156 C 23.097656 25.328125 23.25 25.046875 23.167969 24.78125 C 23.085938 24.515625 22.808594 24.367188 22.539062 24.445312 "/>
<path style=" stroke:none;fill-rule:nonzero;fill:rgb(65.489197%,59.999084%,46.269226%);fill-opacity:1;" d="M 15.246094 11.492188 C 15.574219 11.171875 15.925781 10.871094 16.316406 10.617188 C 16.785156 10.304688 17.289062 10.046875 17.816406 9.84375 C 17.710938 9.628906 17.601562 9.421875 17.484375 9.222656 L 15.101562 5.074219 L 12.722656 9.222656 C 12.625 9.390625 12.527344 9.570312 12.433594 9.753906 C 13.050781 9.96875 13.628906 10.257812 14.171875 10.613281 C 14.566406 10.878906 14.917969 11.179688 15.246094 11.492188 "/>
<path style=" stroke:none;fill-rule:nonzero;fill:rgb(65.489197%,59.999084%,46.269226%);fill-opacity:1;" d="M 11.441406 9.480469 C 11.574219 9.214844 11.707031 8.964844 11.839844 8.722656 L 12.175781 8.144531 L 11.304688 7.40625 L 10.507812 9.324219 L 11.082031 9.414062 C 11.199219 9.429688 11.316406 9.453125 11.441406 9.480469 "/>
<path style=" stroke:none;fill-rule:nonzero;fill:rgb(65.489197%,59.999084%,46.269226%);fill-opacity:1;" d="M 16.875 11.453125 C 15.148438 12.597656 14.03125 14.515625 13.890625 16.582031 L 13.875 16.867188 C 13.820312 17.679688 14.117188 18.472656 14.699219 19.046875 C 14.914062 19.265625 15.160156 19.441406 15.429688 19.574219 C 15.433594 19.578125 15.441406 19.582031 15.445312 19.585938 C 15.890625 19.800781 16.386719 19.90625 16.894531 19.871094 L 17.179688 19.851562 C 19.253906 19.710938 21.183594 18.605469 22.332031 16.882812 C 22.875 16.070312 23.230469 15.175781 23.382812 14.210938 L 24.097656 9.695312 L 19.5625 10.40625 C 18.605469 10.558594 17.679688 10.921875 16.875 11.453125 "/>
<path style=" stroke:none;fill-rule:nonzero;fill:rgb(65.489197%,59.999084%,46.269226%);fill-opacity:1;" d="M 18.792969 9.546875 C 18.996094 9.496094 19.199219 9.445312 19.402344 9.414062 L 19.710938 9.367188 L 18.898438 7.40625 L 18.027344 8.144531 L 18.363281 8.71875 C 18.511719 8.980469 18.65625 9.261719 18.792969 9.546875 "/>
<path style=" stroke:none;fill-rule:nonzero;fill:rgb(65.489197%,59.999084%,46.269226%);fill-opacity:1;" d="M 8.152344 16.882812 L 8.253906 17.027344 C 8.816406 17.824219 9.535156 18.476562 10.382812 18.96875 C 10.945312 19.289062 11.550781 19.527344 12.1875 19.675781 C 12.578125 19.769531 12.941406 19.828125 13.304688 19.851562 L 13.597656 19.871094 C 13.761719 19.878906 13.921875 19.871094 14.085938 19.855469 C 14.050781 19.820312 14.015625 19.792969 13.984375 19.761719 C 13.199219 18.980469 12.792969 17.902344 12.863281 16.796875 L 12.886719 16.515625 C 12.988281 14.941406 13.597656 13.449219 14.566406 12.234375 C 14.273438 11.953125 13.960938 11.6875 13.609375 11.449219 C 12.992188 11.042969 12.308594 10.734375 11.582031 10.542969 C 11.34375 10.484375 11.132812 10.4375 10.929688 10.40625 L 6.390625 9.695312 L 7.105469 14.214844 C 7.253906 15.164062 7.617188 16.085938 8.152344 16.882812 "/>
<g clip-path="url(#clip1)" clip-rule="nonzero">
<path style=" stroke:none;fill-rule:nonzero;fill:rgb(65.489197%,59.999084%,46.269226%);fill-opacity:1;" d="M 15.101562 20.867188 L 14.226562 21.738281 C 13.714844 22.246094 13.132812 22.65625 12.5 22.972656 C 12.777344 24.757812 13.703125 26.398438 15.101562 27.5625 C 16.503906 26.398438 17.425781 24.757812 17.703125 22.972656 C 17.070312 22.65625 16.488281 22.246094 15.980469 21.738281 L 15.101562 20.867188 "/>
</g>
<path style=" stroke:none;fill-rule:nonzero;fill:rgb(65.489197%,59.999084%,46.269226%);fill-opacity:1;" d="M 20.914062 22.671875 C 22.261719 22.671875 23.566406 22.191406 24.589844 21.316406 L 25.953125 20.15625 L 24.589844 18.992188 C 24.066406 18.546875 23.441406 18.199219 22.773438 17.964844 C 21.429688 19.640625 19.414062 20.710938 17.246094 20.855469 L 16.960938 20.875 C 16.875 20.878906 16.789062 20.882812 16.703125 20.882812 C 16.648438 20.882812 16.59375 20.875 16.539062 20.875 L 16.695312 21.027344 C 17.207031 21.539062 17.800781 21.941406 18.460938 22.21875 C 19.164062 22.519531 19.914062 22.671875 20.683594 22.671875 L 20.914062 22.671875 "/>
<path style=" stroke:none;fill-rule:nonzero;fill:rgb(65.489197%,59.999084%,46.269226%);fill-opacity:1;" d="M 13.664062 20.878906 C 13.617188 20.878906 13.574219 20.878906 13.527344 20.875 L 13.238281 20.855469 C 12.816406 20.828125 12.394531 20.761719 11.949219 20.65625 C 11.222656 20.484375 10.523438 20.207031 9.875 19.839844 C 9.007812 19.335938 8.265625 18.679688 7.65625 17.894531 C 6.910156 18.117188 6.210938 18.484375 5.613281 18.992188 L 4.253906 20.15625 L 5.613281 21.320312 C 6.640625 22.191406 7.945312 22.671875 9.289062 22.671875 L 9.523438 22.671875 C 10.289062 22.671875 11.039062 22.519531 11.742188 22.21875 C 12.402344 21.941406 12.996094 21.539062 13.511719 21.027344 L 13.664062 20.878906 "/>
<g clip-path="url(#clip2)" clip-rule="nonzero">
<path style=" stroke:none;fill-rule:nonzero;fill:rgb(65.489197%,59.999084%,46.269226%);fill-opacity:1;" d="M 0.949219 20.660156 L 1.960938 20.660156 L 1.960938 19.652344 L 0.949219 19.652344 L 0.949219 20.660156 "/>
</g>
<path style=" stroke:none;fill-rule:nonzero;fill:rgb(65.489197%,59.999084%,46.269226%);fill-opacity:1;" d="M 4.992188 7.078125 L 3.980469 7.078125 L 3.980469 8.085938 L 4.992188 8.085938 L 4.992188 7.078125 "/>
<g clip-path="url(#clip3)" clip-rule="nonzero">
<path style=" stroke:none;fill-rule:nonzero;fill:rgb(65.489197%,59.999084%,46.269226%);fill-opacity:1;" d="M 15.609375 1.546875 L 14.597656 1.546875 L 14.597656 2.554688 L 15.609375 2.554688 L 15.609375 1.546875 "/>
</g>
<path style=" stroke:none;fill-rule:nonzero;fill:rgb(65.489197%,59.999084%,46.269226%);fill-opacity:1;" d="M 25.210938 8.085938 L 26.222656 8.085938 L 26.222656 7.078125 L 25.210938 7.078125 L 25.210938 8.085938 "/>
<g clip-path="url(#clip4)" clip-rule="nonzero">
<path style=" stroke:none;fill-rule:nonzero;fill:rgb(65.489197%,59.999084%,46.269226%);fill-opacity:1;" d="M 28.246094 19.652344 L 28.246094 20.660156 L 29.253906 20.660156 L 29.253906 19.652344 L 28.246094 19.652344 "/>
</g>
</g>
</svg>
